<svg xmlns="http://www.w3.org/2000/svg" xmlns:xlink="http://www.w3.org/1999/xlink" width="200" height="33" viewBox="0 0 200 33">
	<defs>
		<clipPath id="b">
			<rect width="200" height="33" />
		</clipPath>
	</defs>
	<g id="a" clip-path="url(#b)">
		<g transform="translate(0 0.104)">
			<path d="M75.215,26.5a8,8,0,0,1-2.509,1.76,7.674,7.674,0,0,1-3.325.662,9.54,9.54,0,0,1-3.387-.562,6.678,6.678,0,0,1-2.509-1.61,7.084,7.084,0,0,1-1.556-2.5,9.021,9.021,0,0,1-.539-3.208A7.991,7.991,0,0,1,62,17.963a7.632,7.632,0,0,1,4.153-4.219,8.329,8.329,0,0,1,3.249-.624,8.1,8.1,0,0,1,3.3.649,7.528,7.528,0,0,1,2.509,1.748l-2.346,2.447a4.689,4.689,0,0,0-1.493-1.136,4.511,4.511,0,0,0-1.97-.412,4.17,4.17,0,0,0-1.869.4,3.974,3.974,0,0,0-1.317,1.024,4.2,4.2,0,0,0-.778,1.485,6.212,6.212,0,0,0-.251,1.735,5.876,5.876,0,0,0,.251,1.673A4.623,4.623,0,0,0,66.22,24.2a3.909,3.909,0,0,0,3.187,1.485,4.737,4.737,0,0,0,2.032-.424,4.8,4.8,0,0,0,1.556-1.148Z" transform="translate(15.601 3.257)" />
			<path d="M73.49,21.046a7.992,7.992,0,0,1,.64-3.083,7.632,7.632,0,0,1,4.153-4.219,8.823,8.823,0,0,1,6.5,0,7.632,7.632,0,0,1,4.1,4.219,8.125,8.125,0,0,1,0,6.079,7.8,7.8,0,0,1-1.631,2.5,7.441,7.441,0,0,1-2.509,1.71,8.609,8.609,0,0,1-6.5,0,7.529,7.529,0,0,1-2.509-1.71,8.079,8.079,0,0,1-2.221-5.567Zm7.991,4.693a3.855,3.855,0,0,0,1.869-.424A4.1,4.1,0,0,0,84.668,24.2a4.684,4.684,0,0,0,.753-1.523,5.342,5.342,0,0,0,.251-1.635,5.4,5.4,0,0,0-.251-1.635,4.561,4.561,0,0,0-.753-1.448,4.022,4.022,0,0,0-1.317-1.1,4.323,4.323,0,0,0-3.764,0,4.022,4.022,0,0,0-1.317,1.1,4.81,4.81,0,0,0-.778,1.51,5.828,5.828,0,0,0-.251,1.635,5.753,5.753,0,0,0,.251,1.635,4.985,4.985,0,0,0,.8,1.46,4.1,4.1,0,0,0,1.317,1.123A3.855,3.855,0,0,0,81.481,25.739Z" transform="translate(18.682 3.258)" />
			<path d="M98.67,28.135a6.06,6.06,0,0,1-.7.662,4.3,4.3,0,0,1-.966.637,6.455,6.455,0,0,1-1.255.474,5.8,5.8,0,0,1-1.543.187,6.123,6.123,0,0,1-2.371-.5,6.272,6.272,0,0,1-2.1-1.485,7.558,7.558,0,0,1-1.493-2.4,8.785,8.785,0,0,1-.565-3.258,8.437,8.437,0,0,1,.5-3.046,8.252,8.252,0,0,1,1.255-2.222,6.913,6.913,0,0,1,1.393-1.248,10.4,10.4,0,0,1,1.543-.836,8.349,8.349,0,0,1,1.505-.474,7.35,7.35,0,0,1,1.255-.137,10.718,10.718,0,0,1,1.255,0,7.324,7.324,0,0,1,.853.125,3.577,3.577,0,0,1,.7.2l.728.287V8.55h3.764V29.6H98.771Zm0-9.649a3.017,3.017,0,0,0-1.255-.612,7.4,7.4,0,0,0-1.807-.175,3.6,3.6,0,0,0-1.844.424,4.484,4.484,0,0,0-1.255,1.123,4.71,4.71,0,0,0-.74,1.46,5.417,5.417,0,0,0-.276,1.748,5.137,5.137,0,0,0,.953,3.158,3.269,3.269,0,0,0,2.76,1.248,3.364,3.364,0,0,0,1.656-.35,3.232,3.232,0,0,0,1.079-.924,3.961,3.961,0,0,0,.6-1.248,4.869,4.869,0,0,0,.188-1.311Z" transform="translate(22.293 2.122)" />
			<path d="M116.109,26.31l-.527.512a5.67,5.67,0,0,1-1.255.9,9.776,9.776,0,0,1-2.057.861,10.627,10.627,0,0,1-3,.374,8.393,8.393,0,0,1-3.237-.6,7.053,7.053,0,0,1-2.509-1.66,7.21,7.21,0,0,1-1.593-2.5,9.443,9.443,0,0,1-.552-3.283,8.326,8.326,0,0,1,.552-3.046,7.621,7.621,0,0,1,1.556-2.5,7.29,7.29,0,0,1,2.384-1.635,7.561,7.561,0,0,1,3.049-.6,7.446,7.446,0,0,1,3.45.736,6.353,6.353,0,0,1,2.333,1.96,7.758,7.758,0,0,1,1.255,2.709,12.759,12.759,0,0,1,.376,3.1v.537h-11.09a2.922,2.922,0,0,0,.364,1.473,3.474,3.474,0,0,0,.953,1.136,3.92,3.92,0,0,0,1.33.724,4.335,4.335,0,0,0,1.468.262,7.69,7.69,0,0,0,1.894-.212,7.364,7.364,0,0,0,1.38-.474,4.219,4.219,0,0,0,.928-.562c.238-.2.427-.362.552-.487Zm-3.651-6.815a3,3,0,0,0-.213-1.136,3.031,3.031,0,0,0-.652-1.024,3.337,3.337,0,0,0-1.091-.761,3.78,3.78,0,0,0-1.531-.3,4.221,4.221,0,0,0-1.631.3,3.615,3.615,0,0,0-1.179.761,3.108,3.108,0,0,0-.74,1.024,2.809,2.809,0,0,0-.251,1.136Z" transform="translate(25.781 3.261)" />
			<path d="M116.739,17.561H114.23V14.5h2.509V9.71H120.5V14.5h4v3.058h-4v6.466a3.729,3.729,0,0,0,.427,1.935,1.508,1.508,0,0,0,1.38.687,3.226,3.226,0,0,0,1.418-.262,5.814,5.814,0,0,0,.991-.6l1.593,2.309a7.449,7.449,0,0,1-2.2,1.248,6.957,6.957,0,0,1-2.409.387,6.024,6.024,0,0,1-2.308-.387,3.763,3.763,0,0,1-1.543-1.123,4.546,4.546,0,0,1-.841-1.748,9.74,9.74,0,0,1-.251-2.259Z" transform="translate(29.052 2.41)" />
			<path d="M139.156,26.307l-.527.512a5.669,5.669,0,0,1-1.255.9,9.637,9.637,0,0,1-2.07.861,10.475,10.475,0,0,1-2.986.374,8.392,8.392,0,0,1-3.237-.6,7.216,7.216,0,0,1-2.509-1.66,7.372,7.372,0,0,1-1.581-2.5,9.444,9.444,0,0,1-.552-3.283,8.326,8.326,0,0,1,.552-3.046,7.621,7.621,0,0,1,1.556-2.5,7.365,7.365,0,0,1,2.359-1.623,7.649,7.649,0,0,1,3.061-.6,7.446,7.446,0,0,1,3.45.736,6.351,6.351,0,0,1,2.271,1.947,7.758,7.758,0,0,1,1.255,2.709,12.759,12.759,0,0,1,.376,3.1v.537h-11.09a2.922,2.922,0,0,0,.364,1.473,3.475,3.475,0,0,0,.953,1.136,3.92,3.92,0,0,0,1.33.724,4.335,4.335,0,0,0,1.468.262,7.765,7.765,0,0,0,1.894-.212,6.923,6.923,0,0,0,1.367-.474,4.056,4.056,0,0,0,.941-.562c.238-.2.427-.362.552-.487Zm-3.651-6.815a3.255,3.255,0,0,0-.213-1.136,3.031,3.031,0,0,0-.652-1.024,3.338,3.338,0,0,0-1.091-.761,3.78,3.78,0,0,0-1.531-.3,4.171,4.171,0,0,0-1.631.3,3.767,3.767,0,0,0-1.255.761,3.258,3.258,0,0,0-.728,1.024,2.809,2.809,0,0,0-.251,1.136Z" transform="translate(31.651 3.264)" />
			<path d="M138.275,8.55h3.764V20.034l5.357-5.243h4.341l-5.57,5.455,6.21,9.349h-4.4l-4.341-6.753-1.618,1.573v5.243H138.25Z" transform="translate(35.166 2.122)" />
			<path d="M152.369,17.561H149.86V14.5h2.509V9.71h3.764V14.5h3.939v3.058h-3.989v6.466a3.6,3.6,0,0,0,.427,1.935,1.5,1.5,0,0,0,1.38.687,3.163,3.163,0,0,0,1.405-.262,5.463,5.463,0,0,0,1-.6l1.581,2.309a7.537,7.537,0,0,1-2.183,1.248,6.957,6.957,0,0,1-2.409.387,6.1,6.1,0,0,1-2.321-.387,3.763,3.763,0,0,1-1.531-1.123,4.21,4.21,0,0,1-.841-1.748,9.08,9.08,0,0,1-.263-2.259Z" transform="translate(38.121 2.41)" />
			<path d="M27.975,15.441a2.733,2.733,0,0,1,.063-.711h0a2.016,2.016,0,0,1,.088-.724,1.094,1.094,0,0,0,0-.2,3.113,3.113,0,0,1,.125-.649h0l.151-.687a.389.389,0,0,1,.063-.212,3.577,3.577,0,0,0,.163-.562v-.137c.063-.212.138-.412.213-.612a1.978,1.978,0,0,1,.088-.25,1.508,1.508,0,0,1,.176-.462l.113-.262.226-.487.138-.275a3.04,3.04,0,0,1,.251-.487l.289-.362.2-.35.188-.3a1.709,1.709,0,0,1,.163-.25,4.706,4.706,0,0,1,.376-.562l.125-.187.2-.337.125-.15c.188-.237.376-.474.577-.7h0l.326-.35.075-.075a14.06,14.06,0,0,1,1.079-1.036h0a15.422,15.422,0,0,1,1.255-.961h0a13.609,13.609,0,0,1,1.342-.861,16.557,16.557,0,0,0-16.485,0,13.608,13.608,0,0,1,1.342.861h0a15.422,15.422,0,0,1,1.255.961h0a14.234,14.234,0,0,1,1.091,1.036l.075.075.326.35h0c.2.225.389.462.577.7l.125.15.251.337.138.187.376.562.163.25.188.3c.063.125.138.237.2.35l.226.412c.063.112.113.225.176.35l.138.275.226.487.113.262c.063.162.113.312.176.462a1.517,1.517,0,0,1,.088.25c.025.087.151.4.213.612v.137c.063.187.113.374.163.562s0,.15,0,.212.113.449.163.687a5.391,5.391,0,0,0,.113.649v.2c0,.237.063.474.088.724h0a2.733,2.733,0,0,0,.063.711v.187a.944.944,0,0,0,0-.187" transform="translate(4.982 0.012)" fill="#5f38fa" />
			<path d="M27.884,14.074a2.733,2.733,0,0,1-.063.711h0a6.718,6.718,0,0,1-.088.724v.2l-.113.637v.075a2.73,2.73,0,0,1-.163.687c-.063.225,0,.137,0,.212a3.848,3.848,0,0,1-.163.562v.137c-.063.212-.138.412-.213.612s-.063.162-.088.237a4.477,4.477,0,0,1-.188.462,2.241,2.241,0,0,1-.1.262l-.226.5-.138.275c-.063.112-.113.237-.176.35l-.226.412c-.063.112-.138.225-.2.35l-.188.3-.163.25-.376.562-.138.187-.251.337-.125.15c-.188.237-.376.474-.577.7h0c-.1.125-.213.237-.326.362l-.075.075a14.234,14.234,0,0,1-1.091,1.036h0a15.56,15.56,0,0,1-1.255.974h0c-.427.3-.878.587-1.342.861a16.557,16.557,0,0,0,16.485,0c-.464-.275-.916-.562-1.342-.861h0a15.558,15.558,0,0,1-1.255-.974h0A14.059,14.059,0,0,1,32.639,24.4l-.075-.075c-.113-.125-.226-.237-.326-.362h0c-.2-.225-.389-.462-.577-.7l-.125-.15-.263-.337-.125-.187a6.579,6.579,0,0,1-.376-.562,1.709,1.709,0,0,1-.163-.25l-.188-.3-.339-.325-.226-.412c-.063-.112-.125-.237-.176-.35l-.138-.275-.226-.5-.113-.262c-.063-.15-.125-.3-.176-.462a1.331,1.331,0,0,1-.088-.237c-.075-.2-.151-.4-.213-.612v-.137c-.063-.187-.113-.374-.163-.562s0-.15-.063-.212l-.151-.687a.161.161,0,0,1,0-.075,3.807,3.807,0,0,0-.125-.637.969.969,0,0,0,0-.2c0-.237-.063-.474-.088-.724h0V14.1a1.143,1.143,0,0,0,0-.2v.2" transform="translate(5.022 3.264)" fill="#5f38fa" />
			<path d="M41.07,0a16.373,16.373,0,0,0-8.23,2.2,16.361,16.361,0,0,1,0,28.4,16.539,16.539,0,0,0,18.813-1.657A16.377,16.377,0,0,0,41.07,0" transform="translate(8.334 0)" fill="#ff7268" />
			<path d="M16.467,16.387A16.375,16.375,0,0,1,24.709,2.194,16.539,16.539,0,0,0,5.9,3.849,16.414,16.414,0,0,0,24.709,30.592a16.4,16.4,0,0,1-8.242-14.2" transform="translate(-0.02 0.002)" fill="#fac800" />
		</g>
	</g>
</svg>